<svg xmlns="http://www.w3.org/2000/svg" viewBox="0 0 800 800">
  <defs>
    <radialGradient id="spot-4-0" cx="50%" cy="38%" r="65%">
      <stop offset="0%" stop-color="#2A2C30"/>
      <stop offset="100%" stop-color="#1E2023"/>
    </radialGradient>
  </defs>
  <rect width="800" height="800" fill="url(#spot-4-0)"/>
  <g transform="rotate(0 400 400) scale(1.0) translate(0.0 0.0)">

  <circle cx="400" cy="400" r="70" fill="#FF7A1A" opacity="0.9"/>
  <line x1="260" y1="260" x2="540" y2="540" stroke="#FF7A1A" stroke-width="14"/>
  <line x1="540" y1="260" x2="260" y2="540" stroke="#FF7A1A" stroke-width="14"/>
  <circle cx="260" cy="260" r="36" fill="#FF7A1A" opacity="0.7"/>
  <circle cx="540" cy="260" r="36" fill="#FF7A1A" opacity="0.7"/>
  <circle cx="260" cy="540" r="36" fill="#FF7A1A" opacity="0.7"/>
  <circle cx="540" cy="540" r="36" fill="#FF7A1A" opacity="0.7"/>
  <line x1="320.0" y1="320.0" x2="480.0" y2="320.0" stroke="#0A0A0A" stroke-width="0.6" opacity="0.15"/>
<line x1="320.0" y1="328.9" x2="480.0" y2="328.9" stroke="#0A0A0A" stroke-width="0.6" opacity="0.15"/>
<line x1="320.0" y1="337.8" x2="480.0" y2="337.8" stroke="#0A0A0A" stroke-width="0.6" opacity="0.15"/>
<line x1="320.0" y1="346.7" x2="480.0" y2="346.7" stroke="#0A0A0A" stroke-width="0.6" opacity="0.15"/>
<line x1="320.0" y1="355.6" x2="480.0" y2="355.6" stroke="#0A0A0A" stroke-width="0.6" opacity="0.15"/>
<line x1="320.0" y1="364.4" x2="480.0" y2="364.4" stroke="#0A0A0A" stroke-width="0.6" opacity="0.15"/>
<line x1="320.0" y1="373.3" x2="480.0" y2="373.3" stroke="#0A0A0A" stroke-width="0.6" opacity="0.15"/>
<line x1="320.0" y1="382.2" x2="480.0" y2="382.2" stroke="#0A0A0A" stroke-width="0.6" opacity="0.15"/>
<line x1="320.0" y1="391.1" x2="480.0" y2="391.1" stroke="#0A0A0A" stroke-width="0.6" opacity="0.15"/>
<line x1="320.0" y1="400.0" x2="480.0" y2="400.0" stroke="#0A0A0A" stroke-width="0.6" opacity="0.15"/>
<line x1="320.0" y1="408.9" x2="480.0" y2="408.9" stroke="#0A0A0A" stroke-width="0.6" opacity="0.15"/>
<line x1="320.0" y1="417.8" x2="480.0" y2="417.8" stroke="#0A0A0A" stroke-width="0.6" opacity="0.15"/>
<line x1="320.0" y1="426.7" x2="480.0" y2="426.7" stroke="#0A0A0A" stroke-width="0.6" opacity="0.15"/>
<line x1="320.0" y1="435.6" x2="480.0" y2="435.6" stroke="#0A0A0A" stroke-width="0.6" opacity="0.15"/>
<line x1="320.0" y1="444.4" x2="480.0" y2="444.4" stroke="#0A0A0A" stroke-width="0.6" opacity="0.15"/>
<line x1="320.0" y1="453.3" x2="480.0" y2="453.3" stroke="#0A0A0A" stroke-width="0.6" opacity="0.15"/>
<line x1="320.0" y1="462.2" x2="480.0" y2="462.2" stroke="#0A0A0A" stroke-width="0.6" opacity="0.15"/>
<line x1="320.0" y1="471.1" x2="480.0" y2="471.1" stroke="#0A0A0A" stroke-width="0.6" opacity="0.15"/>

  </g>
</svg>