<svg xmlns="http://www.w3.org/2000/svg" viewBox="0 0 800 800">
  <defs>
    <radialGradient id="spot-2-2" cx="50%" cy="38%" r="65%">
      <stop offset="0%" stop-color="#2A2C30"/>
      <stop offset="100%" stop-color="#1E2023"/>
    </radialGradient>
  </defs>
  <rect width="800" height="800" fill="url(#spot-2-2)"/>
  <g transform="rotate(-8 400 400) scale(0.94) translate(24.0 24.0)">

  <ellipse cx="400" cy="300" rx="60" ry="70" fill="#FF7A1A" opacity="0.9"/>
  <path d="M320 380 Q400 340 480 380 L470 620 L410 620 L400 460 L390 620 L330 620 Z" fill="#FF7A1A" opacity="0.85"/>
  <line x1="300.0" y1="300.0" x2="500.0" y2="300.0" stroke="#0A0A0A" stroke-width="0.6" opacity="0.15"/>
<line x1="300.0" y1="309.4" x2="500.0" y2="309.4" stroke="#0A0A0A" stroke-width="0.6" opacity="0.15"/>
<line x1="300.0" y1="318.8" x2="500.0" y2="318.8" stroke="#0A0A0A" stroke-width="0.6" opacity="0.15"/>
<line x1="300.0" y1="328.2" x2="500.0" y2="328.2" stroke="#0A0A0A" stroke-width="0.6" opacity="0.15"/>
<line x1="300.0" y1="337.6" x2="500.0" y2="337.6" stroke="#0A0A0A" stroke-width="0.6" opacity="0.15"/>
<line x1="300.0" y1="347.1" x2="500.0" y2="347.1" stroke="#0A0A0A" stroke-width="0.6" opacity="0.15"/>
<line x1="300.0" y1="356.5" x2="500.0" y2="356.5" stroke="#0A0A0A" stroke-width="0.6" opacity="0.15"/>
<line x1="300.0" y1="365.9" x2="500.0" y2="365.9" stroke="#0A0A0A" stroke-width="0.6" opacity="0.15"/>
<line x1="300.0" y1="375.3" x2="500.0" y2="375.3" stroke="#0A0A0A" stroke-width="0.6" opacity="0.15"/>
<line x1="300.0" y1="384.7" x2="500.0" y2="384.7" stroke="#0A0A0A" stroke-width="0.6" opacity="0.15"/>
<line x1="300.0" y1="394.1" x2="500.0" y2="394.1" stroke="#0A0A0A" stroke-width="0.6" opacity="0.15"/>
<line x1="300.0" y1="403.5" x2="500.0" y2="403.5" stroke="#0A0A0A" stroke-width="0.6" opacity="0.15"/>
<line x1="300.0" y1="412.9" x2="500.0" y2="412.9" stroke="#0A0A0A" stroke-width="0.6" opacity="0.15"/>
<line x1="300.0" y1="422.4" x2="500.0" y2="422.4" stroke="#0A0A0A" stroke-width="0.6" opacity="0.15"/>
<line x1="300.0" y1="431.8" x2="500.0" y2="431.8" stroke="#0A0A0A" stroke-width="0.6" opacity="0.15"/>
<line x1="300.0" y1="441.2" x2="500.0" y2="441.2" stroke="#0A0A0A" stroke-width="0.6" opacity="0.15"/>
<line x1="300.0" y1="450.6" x2="500.0" y2="450.6" stroke="#0A0A0A" stroke-width="0.6" opacity="0.15"/>
<line x1="300.0" y1="460.0" x2="500.0" y2="460.0" stroke="#0A0A0A" stroke-width="0.6" opacity="0.15"/>
<line x1="300.0" y1="469.4" x2="500.0" y2="469.4" stroke="#0A0A0A" stroke-width="0.6" opacity="0.15"/>
<line x1="300.0" y1="478.8" x2="500.0" y2="478.8" stroke="#0A0A0A" stroke-width="0.6" opacity="0.15"/>
<line x1="300.0" y1="488.2" x2="500.0" y2="488.2" stroke="#0A0A0A" stroke-width="0.6" opacity="0.15"/>
<line x1="300.0" y1="497.6" x2="500.0" y2="497.6" stroke="#0A0A0A" stroke-width="0.6" opacity="0.15"/>
<line x1="300.0" y1="507.1" x2="500.0" y2="507.1" stroke="#0A0A0A" stroke-width="0.6" opacity="0.15"/>
<line x1="300.0" y1="516.5" x2="500.0" y2="516.5" stroke="#0A0A0A" stroke-width="0.6" opacity="0.15"/>
<line x1="300.0" y1="525.9" x2="500.0" y2="525.9" stroke="#0A0A0A" stroke-width="0.6" opacity="0.15"/>
<line x1="300.0" y1="535.3" x2="500.0" y2="535.3" stroke="#0A0A0A" stroke-width="0.6" opacity="0.15"/>
<line x1="300.0" y1="544.7" x2="500.0" y2="544.7" stroke="#0A0A0A" stroke-width="0.6" opacity="0.15"/>
<line x1="300.0" y1="554.1" x2="500.0" y2="554.1" stroke="#0A0A0A" stroke-width="0.6" opacity="0.15"/>
<line x1="300.0" y1="563.5" x2="500.0" y2="563.5" stroke="#0A0A0A" stroke-width="0.6" opacity="0.15"/>
<line x1="300.0" y1="572.9" x2="500.0" y2="572.9" stroke="#0A0A0A" stroke-width="0.6" opacity="0.15"/>
<line x1="300.0" y1="582.4" x2="500.0" y2="582.4" stroke="#0A0A0A" stroke-width="0.6" opacity="0.15"/>
<line x1="300.0" y1="591.8" x2="500.0" y2="591.8" stroke="#0A0A0A" stroke-width="0.6" opacity="0.15"/>
<line x1="300.0" y1="601.2" x2="500.0" y2="601.2" stroke="#0A0A0A" stroke-width="0.6" opacity="0.15"/>
<line x1="300.0" y1="610.6" x2="500.0" y2="610.6" stroke="#0A0A0A" stroke-width="0.6" opacity="0.15"/>

  </g>
</svg>